<svg width="69" height="69" viewBox="0 0 69 69" fill="none" xmlns="http://www.w3.org/2000/svg">
<path d="M68.925 8.73858C68.7606 8.309 68.3571 8.03015 67.9087 8.01508L61.265 7.85681L61.4145 1.15691C61.422 0.697189 61.1604 0.282685 60.7419 0.0942734C60.3234 -0.0866013 59.8451 -0.00370037 59.5163 0.31283L51.5723 7.96232C51.3556 8.16581 51.2286 8.45219 51.2286 8.75365L51.0567 15.9057L49.0912 17.8878C43.875 13.0117 36.895 10.0273 29.235 10.0273C13.1154 10.0273 0 23.2538 0 39.5174C0 55.7735 13.1154 69 29.235 69C45.3547 69 58.4775 55.7735 58.4775 39.5174C58.4775 32.5764 56.0786 26.2005 52.088 21.1586L50.5037 22.7714C54.0908 27.3913 56.2356 33.2019 56.2356 39.5174C56.2356 54.53 44.1216 66.7391 29.2425 66.7391C14.3485 66.7391 2.24195 54.53 2.24195 39.5174C2.24195 24.5048 14.3485 12.2882 29.235 12.2882C36.2748 12.2882 42.6942 15.024 47.5069 19.4931L43.3593 23.6758C39.6078 20.2769 34.6606 18.2044 29.235 18.2044C17.5844 18.2044 8.10839 27.7681 8.10839 39.5174C8.10839 51.2667 17.5844 60.823 29.235 60.823C40.8857 60.823 50.3692 51.2667 50.3692 39.5174C50.3692 34.8524 48.867 30.5264 46.3336 27.0145L44.7194 28.6499C46.8568 31.7323 48.1272 35.4779 48.1272 39.5174C48.1272 50.0157 39.6526 58.562 29.235 58.562C18.8249 58.562 10.3503 50.0157 10.3503 39.5174C10.3503 29.0116 18.8249 20.4653 29.235 20.4653C34.0403 20.4653 38.427 22.2891 41.7675 25.2735L34.7428 32.3578C33.2182 31.1595 31.3126 30.4435 29.235 30.4435C24.2803 30.4435 20.2448 34.5132 20.2448 39.5099C20.2448 44.5065 24.2803 48.5762 29.235 48.5762C34.1897 48.5762 38.2253 44.5065 38.2253 39.5099C38.2253 38.2588 37.9637 37.0681 37.5078 35.9904L35.7516 37.7765C35.9011 38.3342 35.9833 38.9145 35.9833 39.5174C35.9833 43.2706 32.9567 46.3228 29.235 46.3228C25.5134 46.3228 22.4868 43.2706 22.4868 39.5174C22.4868 35.7643 25.5134 32.712 29.235 32.712C30.6923 32.712 32.0375 33.1868 33.1435 33.9781L28.4429 38.7186C28.002 39.1632 28.002 39.8792 28.4429 40.3163C28.6596 40.5348 28.9511 40.6479 29.235 40.6479C29.519 40.6479 29.8105 40.5348 30.0272 40.3163L32.5606 37.7614L36.3271 33.9631L43.3518 26.8788L44.9436 25.2735L49.0912 21.0908L50.6755 19.4931L51.3332 18.8299L51.7965 18.3626L52.4019 17.7522L59.9049 17.9255C59.9124 17.9255 59.9199 17.9255 59.9348 17.9255C60.2263 17.9255 60.5028 17.8125 60.7045 17.609L68.6485 9.96702C68.9773 9.65049 69.0894 9.16815 68.925 8.73858ZM59.4939 15.657L54.599 15.544L58.1487 11.9642C58.5896 11.5195 58.5896 10.8036 58.1487 10.3664C57.7078 9.9218 57.0053 9.9218 56.5644 10.3664L53.3584 13.5996L53.463 9.2812L57.1025 5.77675L59.1128 3.83989L59.0007 8.94206C58.9857 9.56758 59.4789 10.0801 60.0992 10.0951L65.1586 10.2157L59.4939 15.657Z" fill="#1E6BC6"/>
</svg>
