<svg width="59" height="55" viewBox="0 0 59 55" fill="none" xmlns="http://www.w3.org/2000/svg">
<path d="M57.8573 6.21713H45.7831V1.11819C45.7831 0.499458 45.2727 0 44.6404 0C44.0081 0 43.4977 0.499458 43.4977 1.11819V6.21713H14.1996V1.11819C14.1996 0.499458 13.6892 0 13.0569 0C12.4247 0 11.9143 0.499458 11.9143 1.11819V6.21713H1.14267C0.510394 6.21713 0 6.72404 0 7.33532V53.8818C0 54.5005 0.510394 55 1.14267 55H57.8573C58.4896 55 59 54.5005 59 53.8818V7.33532C59 6.72404 58.4896 6.21713 57.8573 6.21713ZM56.7147 52.7636H2.28535V8.45351H11.9143V11.8379C11.9143 12.4566 12.4247 12.9561 13.0569 12.9561C13.6892 12.9561 14.1996 12.4566 14.1996 11.8379V8.45351H43.4977V11.8379C43.4977 12.4566 44.0081 12.9561 44.6404 12.9561C45.2727 12.9561 45.7831 12.4566 45.7831 11.8379V8.45351H56.7147V52.7636Z" fill="#1E6BC6"/>
<path d="M45.4174 38.1973L41.5628 34.4253C41.1134 33.9855 40.3897 33.9855 39.9478 34.4253C39.4984 34.8577 39.4984 35.5659 39.9478 36.0057L43.8025 39.7777L39.9478 43.5497C39.4984 43.9896 39.4984 44.6978 39.9478 45.1301C40.1688 45.3463 40.4659 45.4581 40.7553 45.4581C41.0448 45.4581 41.3419 45.3463 41.5628 45.1301L45.4174 41.3581L49.272 45.1301C49.493 45.3463 49.7901 45.4581 50.0795 45.4581C50.369 45.4581 50.6661 45.3463 50.887 45.1301C51.3365 44.6978 51.3365 43.9821 50.887 43.5497L47.0324 39.7777L50.887 36.0057C51.3365 35.5659 51.3365 34.8577 50.887 34.4253C50.4376 33.9855 49.7139 33.9855 49.272 34.4253L45.4174 38.1973Z" fill="#1E6BC6"/>
<path d="M17.2696 18.9869H10.2231C9.59083 18.9869 9.08044 19.4863 9.08044 20.105V27.0005C9.08044 27.6193 9.59083 28.1187 10.2231 28.1187H17.2696C17.9019 28.1187 18.4123 27.6193 18.4123 27.0005V20.105C18.4123 19.4863 17.9019 18.9869 17.2696 18.9869ZM16.1269 25.8824H11.3658V21.2232H16.1269V25.8824Z" fill="#1E6BC6"/>
<path d="M33.3203 18.9869H26.2815C25.6492 18.9869 25.1388 19.4863 25.1388 20.105V27.0005C25.1388 27.6193 25.6492 28.1187 26.2815 28.1187H33.328C33.9602 28.1187 34.4706 27.6193 34.4706 27.0005V20.105C34.463 19.4863 33.9526 18.9869 33.3203 18.9869ZM27.4241 25.8824V21.2232H32.1853V25.8824H27.4241Z" fill="#1E6BC6"/>
<path d="M17.2696 34.8428H10.2231C9.59083 34.8428 9.08044 35.3422 9.08044 35.961V42.8565C9.08044 43.4752 9.59083 43.9747 10.2231 43.9747H17.2696C17.9019 43.9747 18.4123 43.4752 18.4123 42.8565V35.961C18.4123 35.3422 17.9019 34.8428 17.2696 34.8428ZM16.1269 41.7383H11.3658V37.0792H16.1269V41.7383Z" fill="#1E6BC6"/>
<path d="M33.3203 34.8428H26.2815C25.6492 34.8428 25.1388 35.3422 25.1388 35.961V42.8565C25.1388 43.4752 25.6492 43.9747 26.2815 43.9747H33.328C33.9602 43.9747 34.4706 43.4752 34.4706 42.8565V35.961C34.463 35.3422 33.9526 34.8428 33.3203 34.8428ZM27.4241 41.7383V37.0792H32.1853V41.7383H27.4241Z" fill="#1E6BC6"/>
<path d="M41.6009 18.9869C40.9686 18.9869 40.4582 19.4863 40.4582 20.105V27.0005C40.4582 27.6193 40.9686 28.1187 41.6009 28.1187H48.6474C49.2797 28.1187 49.7901 27.6193 49.7901 27.0005V20.105C49.7901 19.4863 49.2797 18.9869 48.6474 18.9869H41.6009ZM47.5047 25.8824H42.7436V21.2232H47.5047V25.8824Z" fill="#1E6BC6"/>
</svg>
