<svg width="64" height="60" viewBox="0 0 64 60" fill="none" xmlns="http://www.w3.org/2000/svg">
<path d="M63.2878 37.373C62.2758 35.9462 60.4316 35.386 58.7898 35.9985C58.7298 35.3486 58.5049 34.7286 58.1301 34.1982C56.9231 32.4801 54.5467 32.0543 52.8149 33.242L52.1852 33.6529C52.1102 33.0403 51.8928 32.4577 51.5405 31.9497C50.3185 30.2316 47.9346 29.8132 46.1953 31.0159L46.1429 31.0608C41.0751 35.3038 34.9278 39.614 33.3535 39.614C32.1915 39.614 28.638 37.6345 25.7893 36.0433C22.1609 34.0189 18.7274 32.1066 16.7932 31.9497C13.0898 31.6658 1.79977 38.2022 0.54032 38.9492C0.0230467 39.2555 -0.156875 39.9203 0.150491 40.4358C0.457856 40.9512 1.12506 41.1305 1.64234 40.8242C6.23783 38.135 14.3868 33.9741 16.6358 34.1011C18.1351 34.2132 21.6511 36.1853 24.7622 37.9258C28.8704 40.2191 31.5093 41.6609 33.166 41.7505C33.241 41.758 33.3085 41.758 33.3834 41.7505H40.8802C42.2446 41.7505 43.3541 42.8561 43.3541 44.2156C43.3541 45.5752 42.2446 46.6808 40.8802 46.6808H40.8052C40.7302 46.6808 33.4209 47.1887 30.4147 46.6808C27.5885 46.2102 23.9826 43.0204 23.9451 42.9905C23.4953 42.5872 22.8131 42.6245 22.4082 43.0727C22.0034 43.5209 22.0409 44.2007 22.4907 44.6041C22.6556 44.7535 26.6064 48.2495 30.0549 48.8247C31.5093 49.0115 32.9711 49.1011 34.433 49.0712C37.5441 49.0712 40.7527 48.8471 40.9551 48.8322C43.504 48.5483 45.3407 46.255 45.0558 43.7151C44.8084 41.5189 43.0392 39.8008 40.8277 39.614H38.2788C41.4649 37.5299 44.5311 35.259 47.4548 32.8162C48.2045 32.3008 49.239 32.4876 49.7563 33.2346C50.0037 33.5931 50.1011 34.0339 50.0262 34.4671C49.9512 34.9004 49.7038 35.2814 49.344 35.5354L49.269 35.5951L49.1865 35.6624L49.119 35.7445L49.0516 35.8342L49.0066 35.9238L48.9541 36.0209C48.9541 36.0209 48.9541 36.0807 48.9541 36.118C48.9541 36.1554 48.9541 36.1853 48.9541 36.2226C48.9541 36.2226 48.9541 36.2898 48.9541 36.3197C48.9541 36.3571 48.9541 36.3944 48.9541 36.4318C48.9541 36.4318 48.9541 36.499 48.9541 36.5364C48.9541 36.5737 48.9541 36.6036 48.9541 36.6409C48.9541 36.6783 48.9541 36.7082 48.9541 36.7455C48.9541 36.7455 48.9541 36.8127 48.9541 36.8426C48.9691 36.88 48.9841 36.9099 49.0066 36.9472L49.0441 37.0219L49.0816 37.0667C49.1191 37.1116 49.1565 37.1564 49.2015 37.2012L49.269 37.2535L49.4039 37.3431L49.4714 37.373L49.6363 37.4328H49.6963C49.7713 37.4402 49.8537 37.4402 49.9287 37.4328C50.0187 37.4328 50.1086 37.4178 50.1911 37.3954H50.2586C50.3485 37.3655 50.431 37.3282 50.5059 37.2759L53.9769 35.0349C54.7266 34.512 55.7686 34.6912 56.2934 35.4382C56.8182 36.1853 56.6383 37.2161 55.8886 37.739L54.7716 38.4861C54.2543 38.8446 54.1194 39.5543 54.4792 40.0772C54.839 40.5926 55.5512 40.7271 56.076 40.3685L57.178 39.6215L59.2171 38.2545C59.9293 37.6793 60.9714 37.7913 61.5486 38.501C62.1259 39.2107 62.0134 40.249 61.3012 40.8242C61.2337 40.8765 61.1663 40.9213 61.0988 40.9661C49.269 49.2281 35.8574 57.8038 33.8782 57.8262C32.3789 57.8262 29.1703 55.8989 26.3065 54.2032C23.0755 52.2834 20.0318 50.4681 17.8802 50.1917C13.5921 49.624 6.96501 54.5543 6.22283 55.1519C5.74304 55.5179 5.66058 56.1977 6.02042 56.6683C6.38026 57.1389 7.06996 57.2286 7.54225 56.87C9.35646 55.4806 14.6941 51.9547 17.5879 52.3357C19.2971 52.5598 22.4232 54.4198 25.1895 56.0707C28.593 58.0951 31.8091 60 33.8707 60C37.4767 60 58.2126 45.62 62.3583 42.7366L62.4557 42.6544C64.135 41.4143 64.4948 39.0687 63.2878 37.373Z" fill="#1E6BC6"/>
<path d="M25.1071 20.005C29.4851 20.0125 33.0311 16.4791 33.0386 12.1165C33.0461 7.75398 29.5001 4.22062 25.1221 4.21315C20.744 4.20568 17.198 7.73904 17.1905 12.1016C17.1905 12.1091 17.1905 12.1091 17.1905 12.1165C17.198 16.4716 20.7365 19.9975 25.1071 20.005ZM30.8496 12.1091C30.8496 15.2689 28.2782 17.8312 25.1071 17.8312C23.9826 17.8312 22.933 17.5025 22.0409 16.9422L29.9574 9.05379C30.5197 9.94273 30.8496 10.9811 30.8496 12.1091ZM25.1071 6.38695C26.3365 6.38695 27.476 6.7754 28.4056 7.43277L20.4066 15.3959C19.7469 14.4622 19.3571 13.3342 19.3571 12.1091C19.3646 8.9492 21.936 6.38695 25.1071 6.38695Z" fill="#1E6BC6"/>
<path d="M36.8469 16.4716L28.2032 25.0847C25.8268 27.4527 25.8268 31.2923 28.2032 33.6604C30.5797 36.0284 34.433 36.0284 36.8094 33.6604L45.4532 25.0473C47.8296 22.6793 47.8296 18.8396 45.4532 16.4716C43.0767 14.1036 39.2234 14.1036 36.8469 16.4716ZM35.2576 32.1365C33.7283 33.6529 31.2619 33.6454 29.74 32.129C28.2107 30.6051 28.2107 28.1399 29.74 26.616L29.7475 26.6235L33.271 23.1126L38.7961 28.618L35.2576 32.1365ZM43.9163 23.5159L40.3854 27.0269L34.8603 21.5214L38.3988 17.9955C39.9281 16.4791 42.3945 16.4866 43.9163 18.003C45.4457 19.5269 45.4457 21.992 43.9163 23.5159Z" fill="#1E6BC6"/>
<path d="M41.5699 11.4218C44.726 11.4218 47.2974 8.85956 47.2974 5.70717C47.2974 2.55478 44.726 0 41.5699 0C38.4062 0 35.8349 2.56225 35.8349 5.71464C35.8349 8.86703 38.4062 11.4218 41.5699 11.4218ZM41.5699 2.24104C43.489 2.24104 45.0483 3.79482 45.0483 5.71464C45.0483 7.63446 43.489 9.18825 41.5699 9.18825C39.6507 9.18825 38.0839 7.63446 38.0839 5.71464C38.0839 3.79482 39.6507 2.24104 41.5699 2.24104Z" fill="#1E6BC6"/>
</svg>
