<svg width="65" height="60" viewBox="0 0 65 60" fill="none" xmlns="http://www.w3.org/2000/svg">
<path d="M64.6012 27.0931L32.9011 0.268738C32.4698 -0.0908181 31.8419 -0.0908182 31.4182 0.276229L0.391358 27.0032C-0.0852796 27.4077 -0.130674 28.1194 0.277873 28.5913C0.686419 29.0632 1.40516 29.1081 1.8818 28.7036L8.56985 22.9432V58.8764C8.56985 59.4981 9.07675 60 9.7047 60H54.1379C54.7659 60 55.2728 59.4981 55.2728 58.8764V22.1567L63.1259 28.801C63.3378 28.9808 63.6026 29.0707 63.8598 29.0707C64.1776 29.0707 64.5029 28.9359 64.7223 28.6812C65.1384 28.2092 65.0779 27.4976 64.6012 27.0931ZM53.0031 57.7603H10.8396V20.9807L32.1672 2.60585L53.0031 20.2391V57.7603Z" fill="#1E6BC6"/>
<path d="M18.375 32.1644C16.877 34.7187 16.4608 37.2805 17.1493 39.5203L19.1845 45.0335C20.3042 47.5654 22.8236 49.2807 26.266 49.8575C27.0906 49.9924 27.9455 50.0598 28.8232 50.0598C31.4258 50.0598 34.1948 49.4605 36.8579 48.3069C40.4213 46.7638 43.3795 44.4043 45.1953 41.6551C47.1094 38.7562 47.5406 35.7674 46.4436 33.288L44.3404 27.8647C44.2798 27.7298 44.242 27.595 44.1739 27.4602C41.6772 22.5238 33.6803 21.4601 26.3492 25.0856C22.8765 26.8085 20.0394 29.3254 18.375 32.1644ZM44.2798 33.9846L44.3328 34.1344C45.1348 35.9547 44.764 38.1869 43.2887 40.4267C41.7151 42.8162 39.1049 44.8837 35.9425 46.2545C32.78 47.6253 29.4738 48.1197 26.6367 47.6403C23.9736 47.1983 22.0595 45.9473 21.2802 44.1945L21.2348 44.0821C22.3091 44.5915 23.5348 44.9436 24.9041 45.1009C25.464 45.1683 26.039 45.1983 26.6291 45.1983C29.4662 45.1983 32.5228 44.4417 35.4053 43.0185C39.8237 40.8237 42.9937 37.4229 44.2798 33.9846ZM35.1783 25.138C38.3937 25.138 41.0342 26.2766 42.1388 28.4639C44.0756 32.2992 40.6029 37.9173 34.3915 40.996C31.3047 42.5241 28.0363 43.1833 25.1689 42.8612C22.4831 42.554 20.5085 41.408 19.6157 39.6326C18.7154 37.8573 18.9727 35.6101 20.3345 33.2955C21.7871 30.831 24.2838 28.6287 27.363 27.1006C30.0261 25.7822 32.7649 25.138 35.1783 25.138Z" fill="#1E6BC6"/>
<path d="M27.8245 40.2769C27.8245 40.2769 35.3902 28.5388 35.7609 27.9621C35.9198 27.6924 36.177 26.7635 35.3145 26.5014C34.2402 26.2991 33.6122 27.3703 33.6122 27.3703L25.5321 39.9098C25.5321 39.9098 24.7453 41.1008 26.0163 41.5353C26.9696 41.7825 27.8245 40.2769 27.8245 40.2769Z" fill="#1E6BC6"/>
</svg>
