<svg width="147" height="82" viewBox="0 0 147 82" fill="none" xmlns="http://www.w3.org/2000/svg">
<path fill-rule="evenodd" clip-rule="evenodd" d="M59.8301 2.82295C60.1946 3.42957 59.9982 4.2153 59.4133 4.6116C58.0676 5.52323 56.8141 6.56256 55.6701 7.71241C54.5184 8.86996 53.4781 10.1391 52.5667 11.5021C52.1733 12.0903 51.3911 12.2893 50.786 11.9247L49.3251 11.0446C48.72 10.68 48.5215 9.89033 48.9105 9.29925C50.0043 7.63747 51.2606 6.09369 52.6565 4.69066C54.0435 3.29652 55.5689 2.0409 57.2105 0.946347C57.7984 0.554374 58.5855 0.751807 58.95 1.35843L59.8301 2.82295ZM91.2079 7.71241C90.0639 6.56256 88.8104 5.52323 87.4647 4.6116C86.8798 4.2153 86.6834 3.42957 87.0479 2.82295L87.928 1.35843C88.2925 0.751808 89.0797 0.554374 89.6675 0.946347C91.3091 2.0409 92.8345 3.29652 94.2215 4.69066C95.6174 6.09369 96.8737 7.63746 97.9675 9.29924C98.3565 9.89033 98.158 10.68 97.5529 11.0446L96.092 11.9247C95.4869 12.2893 94.7047 12.0903 94.3113 11.5021C93.3999 10.1391 92.3596 8.86996 91.2079 7.71241ZM73.439 42.7123C82.8485 42.7123 90.4765 35.0547 90.4765 25.6085C90.4765 16.1623 82.8485 8.50463 73.439 8.50463C64.0295 8.50463 56.4015 16.1623 56.4015 25.6085C56.4015 35.0547 64.0295 42.7123 73.439 42.7123ZM73.439 46.9883C77.2675 46.9883 80.8601 45.9741 83.9647 44.1988C84.6031 43.8337 85.4285 44.0273 85.7959 44.666L86.8953 46.5776C87.2481 47.1912 88.0296 47.4014 88.6408 47.0472L90.1163 46.192C90.7274 45.8377 90.9368 45.0532 90.584 44.4397L88.9579 41.6122C88.6682 41.1085 88.7554 40.4749 89.1467 40.0461C92.6178 36.2422 94.7358 31.1737 94.7358 25.6085C94.7358 13.8007 85.2009 4.22867 73.439 4.22867C61.6771 4.22867 52.1422 13.8007 52.1422 25.6085C52.1422 31.1357 54.2315 36.1731 57.6605 39.9681C58.0481 40.3971 58.1333 41.0278 57.8448 41.5293L56.226 44.3442C55.8731 44.9577 56.0825 45.7423 56.6937 46.0965L58.1692 46.9517C58.7803 47.3059 59.5618 47.0957 59.9147 46.4822L60.9897 44.6129C61.3584 43.9719 62.1878 43.7796 62.8266 44.1489C65.951 45.9551 69.5748 46.9883 73.439 46.9883ZM62.7988 32.763C63.1516 33.3766 63.9331 33.5868 64.5443 33.2326L84.4634 21.6875C85.0746 21.3332 85.284 20.5487 84.9311 19.9352L84.0792 18.4539C83.7264 17.8404 82.9449 17.6301 82.3337 17.9844L62.4146 29.5295C61.8034 29.8837 61.594 30.6682 61.9469 31.2818L62.7988 32.763Z" fill="url(#paint0_linear)"/>
<path fill-rule="evenodd" clip-rule="evenodd" d="M85.175 75.9464C85.1431 75.9071 85.0839 75.9038 85.0477 75.9392L83.4702 77.4798C83.3212 77.6254 83.2373 77.824 83.2373 78.0312V80.3285C83.2373 80.7563 82.887 81.1031 82.4548 81.1031H80.1135C79.6813 81.1031 79.331 80.7563 79.331 80.3285V63.4858C79.331 63.058 79.6813 62.7112 80.1135 62.7112H82.4548C82.887 62.7112 83.2373 63.058 83.2373 63.4858V72.9759C83.2373 73.031 83.3039 73.0593 83.3443 73.0214L88.7203 67.98C88.8656 67.8437 89.0582 67.7677 89.2585 67.7677H91.7385C92.4323 67.7677 92.7829 68.5953 92.2967 69.0852L88.084 73.3296C88.0332 73.3808 88.0287 73.4614 88.0736 73.5178L93.1082 79.8494C93.5122 80.3576 93.1466 81.1031 92.4933 81.1031H89.7468C89.51 81.1031 89.286 80.997 89.1374 80.8145L85.175 75.9464ZM52.9878 67.1404C52.9878 67.0762 52.9352 67.0241 52.8703 67.0241H48.1611C47.729 67.0241 47.3786 66.6773 47.3786 66.2495V64.5268C47.3786 64.099 47.729 63.7522 48.1611 63.7522H61.871C62.3032 63.7522 62.6535 64.099 62.6535 64.5268V66.2495C62.6535 66.6773 62.3032 67.0241 61.871 67.0241H57.1742C57.1025 67.0241 57.0444 67.0816 57.0444 67.1526V80.3285C57.0444 80.7563 56.694 81.1031 56.2619 81.1031H53.7703C53.3381 81.1031 52.9878 80.7563 52.9878 80.3285V67.1404ZM41.4226 70.6079C41.4226 70.1801 41.773 69.8333 42.2052 69.8333H44.5465C44.9787 69.8333 45.329 70.1801 45.329 70.6079V80.3285C45.329 80.7563 44.9787 81.1031 44.5465 81.1031H42.2052C41.773 81.1031 41.4226 80.7563 41.4226 80.3285V70.6079ZM74.1178 69.0566C72.9993 68.0652 71.3966 67.5694 69.3099 67.5694C68.2248 67.5694 67.1647 67.7099 66.1297 67.9908C65.3647 68.2019 64.6797 68.4782 64.0748 68.8198C63.7359 69.0112 63.6331 69.4362 63.8114 69.7798L64.4672 71.0432C64.6926 71.4776 65.2653 71.5976 65.704 71.3743C65.9961 71.2255 66.3133 71.0974 66.6556 70.99C67.3567 70.7587 68.0662 70.643 68.784 70.643C69.8191 70.643 70.5953 70.8744 71.1128 71.3371C71.6083 71.7642 71.8666 72.373 71.8877 73.1636C71.8893 73.2225 71.8409 73.2704 71.7813 73.2704H68.784C66.8142 73.2704 65.3535 73.6257 64.4019 74.3363C63.467 75.0468 62.9996 76.0218 62.9996 77.2611C62.9996 78.0378 63.1999 78.7318 63.6006 79.3432C64.0012 79.9547 64.5772 80.4339 65.3284 80.7809C66.0963 81.1279 66.9978 81.3014 68.0328 81.3014C69.9692 81.3014 71.3128 80.7224 72.0638 79.5645C72.0855 79.5311 72.1395 79.546 72.1395 79.5856V80.3285C72.1395 80.7563 72.4899 81.1031 72.9221 81.1031H75.013C75.4451 81.1031 75.7955 80.7563 75.7955 80.3285V73.4935C75.7955 71.5106 75.2362 70.0316 74.1178 69.0566ZM70.7873 78.2526C70.2698 78.5501 69.6772 78.6988 69.0094 78.6988C68.325 78.6988 67.7824 78.5583 67.3818 78.2774C66.9978 77.98 66.8058 77.5834 66.8058 77.0876C66.8058 76.0466 67.6071 75.5261 69.2097 75.5261H71.8507C71.8719 75.5261 71.8891 75.5431 71.8891 75.5641V76.7538C71.8891 76.8435 71.8743 76.9329 71.8398 77.0159C71.6183 77.549 71.2675 77.9613 70.7873 78.2526ZM108.451 74.8107C108.465 74.6197 108.471 74.5111 108.471 74.485C108.471 73.0969 108.163 71.8824 107.545 70.8413C106.944 69.7837 106.109 68.974 105.041 68.4122C103.972 67.8503 102.779 67.5694 101.46 67.5694C100.108 67.5694 98.8808 67.8669 97.779 68.4618C96.6939 69.0401 95.8342 69.8581 95.1998 70.9157C94.5821 71.9567 94.2733 73.13 94.2733 74.4354C94.2733 75.7574 94.5905 76.9389 95.2249 77.98C95.8592 79.021 96.7607 79.839 97.9293 80.4339C99.0978 81.0122 100.442 81.3014 101.961 81.3014C104.1 81.3014 105.789 80.7478 107.028 79.6405C107.324 79.3755 107.315 78.9246 107.044 78.6338L105.984 77.4964C105.686 77.1769 105.185 77.1693 104.826 77.4185C104.536 77.6193 104.232 77.7817 103.914 77.9056C103.38 78.1039 102.762 78.203 102.061 78.203C101.043 78.203 100.191 77.9634 99.5068 77.4842C98.8716 77.0395 98.4521 76.4453 98.2482 75.7016C98.2237 75.612 98.2935 75.5261 98.3873 75.5261H107.672C108.081 75.5261 108.421 75.2144 108.451 74.8107ZM99.2564 71.2379C99.8574 70.7422 100.6 70.4943 101.485 70.4943C102.353 70.4943 103.088 70.7504 103.689 71.2627C104.256 71.7308 104.615 72.3535 104.766 73.131C104.78 73.204 104.723 73.2704 104.647 73.2704H98.2569C98.2031 73.2704 98.162 73.2229 98.1714 73.1705C98.3172 72.3585 98.6789 71.7143 99.2564 71.2379ZM43.4019 68.1932C44.6264 68.1932 45.6191 67.2107 45.6191 65.9986C45.6191 64.7865 44.6264 63.8039 43.4019 63.8039C42.1774 63.8039 41.1848 64.7865 41.1848 65.9986C41.1848 67.2107 42.1774 68.1932 43.4019 68.1932Z" fill="url(#paint1_linear)"/>
<defs>
<linearGradient id="paint0_linear" x1="48.7102" y1="0.743652" x2="95.0961" y2="50.1058" gradientUnits="userSpaceOnUse">
<stop stop-color="#4F9AF2"/>
<stop offset="1" stop-color="#1E6BC6"/>
</linearGradient>
<linearGradient id="paint1_linear" x1="41.1847" y1="62.7112" x2="50.7285" y2="97.2548" gradientUnits="userSpaceOnUse">
<stop stop-color="#4F9AF2"/>
<stop offset="1" stop-color="#1E6BC6"/>
</linearGradient>
</defs>
</svg>
