<svg width="64" height="74" viewBox="0 0 64 74" fill="none" xmlns="http://www.w3.org/2000/svg">
<path d="M10.1307 42.4137C10.1307 43.0407 10.6376 43.5469 11.2655 43.5469H28.5232C29.1512 43.5469 29.6581 43.0407 29.6581 42.4137C29.6581 41.7866 29.1512 41.2804 28.5232 41.2804H11.2655C10.6376 41.2804 10.1307 41.7866 10.1307 42.4137Z" fill="#1E6BC6"/>
<path d="M37.8065 47.9286C37.8065 47.3016 37.2996 46.7954 36.6716 46.7954H11.2655C10.6376 46.7954 10.1307 47.3016 10.1307 47.9286C10.1307 48.5557 10.6376 49.0618 11.2655 49.0618H36.6716C37.2996 49.0618 37.8065 48.5557 37.8065 47.9286Z" fill="#1E6BC6"/>
<path d="M11.2655 59.9557H31.7387C32.3667 59.9557 32.8736 59.4496 32.8736 58.8225C32.8736 58.1955 32.3667 57.6893 31.7387 57.6893H11.2655C10.6376 57.6893 10.1307 58.1955 10.1307 58.8225C10.1307 59.4496 10.6376 59.9557 11.2655 59.9557Z" fill="#1E6BC6"/>
<path d="M11.2655 54.5768H25.9508C26.5788 54.5768 27.0857 54.0706 27.0857 53.4436C27.0857 52.8165 26.5788 52.3104 25.9508 52.3104H11.2655C10.6376 52.3104 10.1307 52.8165 10.1307 53.4436C10.1307 54.0706 10.6376 54.5768 11.2655 54.5768Z" fill="#1E6BC6"/>
<path d="M45.6901 42.9274C45.0849 43.0936 44.7293 43.7206 44.8957 44.3174C45.4102 46.1759 45.6674 48.1099 45.6674 50.0666C45.6674 62.0106 35.9302 71.7336 23.9686 71.7336C12.007 71.7411 2.26975 62.0182 2.26975 50.0666C2.26975 38.115 12.007 28.3996 23.9686 28.3996C24.4755 28.3996 24.99 28.4147 25.4969 28.4525C26.1097 28.5054 26.662 28.0219 26.7074 27.4024C26.7528 26.7754 26.2762 26.239 25.6558 26.1936C25.0883 26.1559 24.5209 26.1332 23.9686 26.1332C10.7511 26.1332 0 36.876 0 50.0666C0 63.2647 10.7511 74 23.9686 74C37.1861 74 47.9372 63.2647 47.9372 50.0666C47.9372 47.9059 47.6497 45.768 47.0822 43.7131C46.9158 43.1162 46.2878 42.7612 45.6901 42.9274Z" fill="#1E6BC6"/>
<path d="M63.833 14.2572C63.4018 12.4063 62.1988 10.9709 60.2544 9.97363C59.8988 9.79232 59.4751 9.62611 58.9833 9.43725C57.6593 8.91597 55.8435 8.19827 54.6632 6.81575C52.2648 3.99784 51.9849 1.0666 51.9849 1.04394C51.9395 0.439558 51.4099 -0.0288351 50.8122 0.00138385C50.1994 0.024048 49.7227 0.52266 49.7227 1.13459V23.4286C47.6648 20.7014 44.3964 18.9184 40.7194 18.9184C34.5078 18.9184 29.4463 23.965 29.4463 30.175C29.4463 36.3774 34.5002 41.4315 40.7194 41.4315C46.9385 41.4315 52 36.385 52 30.175C52 30.0541 51.9849 29.9332 51.9849 29.8048C51.9925 29.7595 52 29.7142 52 29.6613V7.03484C52.28 7.4428 52.5977 7.86586 52.9458 8.27382C54.4968 10.0945 56.706 10.9633 58.1662 11.5375C58.605 11.7112 58.9757 11.8548 59.2405 11.9907C60.5797 12.6707 61.3665 13.5772 61.6389 14.7558C62.3501 17.8079 59.4978 21.6608 59.4675 21.6986C59.0892 22.1972 59.1951 22.9073 59.6945 23.2851C60.1938 23.6628 60.905 23.5646 61.2833 23.0584C61.4044 22.8771 64.7787 18.3443 63.833 14.2572ZM40.7042 39.1576C35.741 39.1576 31.7009 35.1233 31.7009 30.1674C31.7009 25.2115 35.741 21.1773 40.7042 21.1773C45.675 21.1773 49.7151 25.2115 49.7151 30.1674C49.7151 35.1309 45.675 39.1576 40.7042 39.1576Z" fill="#1E6BC6"/>
</svg>
