<svg width="50" height="65" viewBox="0 0 50 65" fill="none" xmlns="http://www.w3.org/2000/svg">
<path d="M18.0805 60.2206C18.9126 60.2206 19.5872 59.5358 19.5872 58.6912C19.5872 57.8465 18.9126 57.1618 18.0805 57.1618C17.2483 57.1618 16.5738 57.8465 16.5738 58.6912C16.5738 59.5358 17.2483 60.2206 18.0805 60.2206Z" fill="#1E6BC6"/>
<path d="M48.3954 17.9629C48.0789 17.4124 47.3859 17.2288 46.851 17.55C46.3086 17.8712 46.1278 18.5747 46.4442 19.1176C47.2879 20.5859 47.7399 22.2606 47.7399 23.9659C47.7399 26.4282 46.8811 28.7071 45.3141 30.3818C44.493 31.2535 43.3554 32.4465 42.0371 33.7924C41.6001 34.2435 41.6001 34.97 42.0446 35.4135C42.2631 35.6353 42.5493 35.7424 42.8356 35.7424C43.1294 35.7424 43.4157 35.6276 43.6417 35.3982C44.9676 34.0371 46.1202 32.8365 46.9489 31.9571C48.9152 29.8541 50 27.0171 50 23.9582C49.9925 21.8553 49.4425 19.7829 48.3954 17.9629Z" fill="#1E6BC6"/>
<path d="M36.9143 15.5006V3.44118C36.9143 1.54471 35.3925 0 33.5242 0H3.39009C1.52177 0 0 1.54471 0 3.44118V61.5588C0 63.4553 1.52177 65 3.39009 65H33.5242C35.3925 65 36.9143 63.4553 36.9143 61.5588V37.2488L34.6542 39.5276V52H2.26006V9.94118H34.6542V15.73C32.7934 16.2118 31.1813 17.3741 30.1115 18.9724C28.6801 16.8541 26.2769 15.5082 23.6477 15.5082C23.6402 15.5082 23.6402 15.5082 23.6402 15.5082C21.5459 15.5082 19.5796 16.3341 18.1031 17.8329C16.6265 19.3318 15.8129 21.3276 15.8204 23.4459C15.8204 25.4724 16.5436 27.3612 17.8469 28.7529C20.6193 31.72 29.0116 40.0324 29.3657 40.3841C29.5841 40.5982 29.8704 40.7129 30.1567 40.7129C30.443 40.7129 30.7292 40.6059 30.9477 40.3841C30.9703 40.3612 31.6935 39.6424 32.7633 38.5718L38.1799 33.1194C39.8825 31.3912 41.472 29.7624 42.4062 28.7759C43.7321 27.3688 44.4553 25.4724 44.4553 23.4306C44.4403 19.1635 41.0878 15.6765 36.9143 15.5006ZM34.6542 54.2941V61.5588C34.6542 62.1935 34.1495 62.7059 33.5242 62.7059H3.39009C2.7648 62.7059 2.26006 62.1935 2.26006 61.5588V54.2941H34.6542ZM2.26006 7.64706V3.44118C2.26006 2.80647 2.7648 2.29412 3.39009 2.29412H33.5242C34.1495 2.29412 34.6542 2.80647 34.6542 3.44118V7.64706H2.26006ZM40.7639 27.2006C38.5189 29.5941 32.349 35.7729 30.1492 37.9676C27.9418 35.7729 21.7267 29.5865 19.4817 27.1853C18.5777 26.2141 18.0805 24.8912 18.0805 23.4535C18.0805 21.9471 18.653 20.5324 19.7002 19.4694C20.7473 18.4065 22.1486 17.8176 23.6402 17.8176H23.6477C26.1639 17.8176 28.3788 19.5459 29.0342 22.0082C29.1698 22.5129 29.6067 22.8494 30.1341 22.8571C30.6464 22.8571 31.0909 22.5053 31.2189 22.0006C31.8593 19.5229 34.0666 17.7871 36.5903 17.7871H36.5979C39.6791 17.7871 42.1802 20.3259 42.1877 23.4459C42.1877 24.8835 41.683 26.2218 40.7639 27.2006Z" fill="#1E6BC6"/>
</svg>
