<svg width="93" height="20" viewBox="0 0 93 20" fill="none" xmlns="http://www.w3.org/2000/svg">
<path d="M10 0L12.9389 5.95492L19.5106 6.90983L14.7553 11.5451L15.8779 18.0902L10 15L4.12215 18.0902L5.24472 11.5451L0.489435 6.90983L7.06107 5.95492L10 0Z" fill="#C4C4C4"/>
<path d="M58.5714 0L61.5104 5.95492L68.082 6.90983L63.3267 11.5451L64.4493 18.0902L58.5714 15L52.6936 18.0902L53.8161 11.5451L49.0609 6.90983L55.6325 5.95492L58.5714 0Z" fill="#C4C4C4"/>
<path d="M34.2857 0L37.2246 5.95492L43.7963 6.90983L39.041 11.5451L40.1636 18.0902L34.2857 15L28.4079 18.0902L29.5304 11.5451L24.7752 6.90983L31.3468 5.95492L34.2857 0Z" fill="#C4C4C4"/>
<path d="M82.8571 0L85.7961 5.95492L92.3677 6.90983L87.6124 11.5451L88.735 18.0902L82.8571 15L76.9793 18.0902L78.1019 11.5451L73.3466 6.90983L79.9182 5.95492L82.8571 0Z" fill="#C4C4C4"/>
</svg>
