<?xml version="1.0" encoding="utf-8"?><svg xmlns="http://www.w3.org/2000/svg" xmlns:xlink="http://www.w3.org/1999/xlink"><symbol viewBox="0 0 69 69" id="arrow" xmlns="http://www.w3.org/2000/svg"><path d="M68.925 8.739a1.127 1.127 0 00-1.016-.724l-6.644-.158.15-6.7a1.139 1.139 0 00-.673-1.063 1.117 1.117 0 00-1.226.219l-7.944 7.65c-.216.203-.343.49-.343.79l-.172 7.153-1.966 1.982c-5.216-4.876-12.196-7.86-19.856-7.86C13.115 10.027 0 23.253 0 39.517 0 55.772 13.115 69 29.235 69c16.12 0 29.242-13.227 29.242-29.483a29.486 29.486 0 00-6.389-18.358l-1.584 1.612a27.215 27.215 0 015.732 16.746c0 15.013-12.114 27.222-26.993 27.222-14.894 0-27.001-12.209-27.001-27.222 0-15.012 12.107-27.229 26.993-27.229 7.04 0 13.46 2.736 18.272 7.205l-4.148 4.183c-3.751-3.4-8.698-5.472-14.124-5.472-11.65 0-21.127 9.564-21.127 21.313 0 11.75 9.476 21.306 21.127 21.306 11.65 0 21.134-9.556 21.134-21.306a21.32 21.32 0 00-4.035-12.503l-1.615 1.636a19.02 19.02 0 013.408 10.867c0 10.499-8.474 19.045-18.892 19.045-10.41 0-18.885-8.546-18.885-19.045 0-10.505 8.475-19.052 18.885-19.052 4.805 0 9.192 1.824 12.532 4.808l-7.024 7.085a8.873 8.873 0 00-5.508-1.914c-4.955 0-8.99 4.07-8.99 9.066 0 4.997 4.035 9.066 8.99 9.066s8.99-4.07 8.99-9.066a9.022 9.022 0 00-.717-3.52l-1.756 1.786c.15.558.231 1.138.231 1.741 0 3.754-3.026 6.806-6.748 6.806-3.722 0-6.748-3.052-6.748-6.806 0-3.753 3.026-6.805 6.748-6.805 1.457 0 2.803.475 3.909 1.266l-4.701 4.74a1.13 1.13 0 00.792 1.93c.284 0 .576-.113.792-.332l2.534-2.555 3.766-3.798 7.025-7.084 1.592-1.606 4.147-4.182 1.584-1.598.658-.663.464-.467.605-.61 7.503.172h.03c.291 0 .568-.113.77-.316l7.944-7.642a1.14 1.14 0 00.276-1.228zm-9.431 6.918l-4.895-.113 3.55-3.58a1.13 1.13 0 000-1.598 1.108 1.108 0 00-1.585 0L53.358 13.6l.105-4.319 3.64-3.504 2.01-1.937L59 8.942a1.125 1.125 0 001.098 1.153l5.06.12-5.665 5.442z"/></symbol><symbol viewBox="0 0 31 17" id="arrow_up" xmlns="http://www.w3.org/2000/svg"><path d="M28.91 16.545L15.271 2.922 1.634 16.545.316 15.227 15.272.257l14.956 14.97-1.319 1.318z"/></symbol><symbol viewBox="0 0 59 55" id="calendar" xmlns="http://www.w3.org/2000/svg"><path d="M57.857 6.217H45.783V1.118A1.13 1.13 0 0044.64 0c-.632 0-1.142.5-1.142 1.118v5.1H14.2v-5.1A1.13 1.13 0 0013.057 0c-.632 0-1.143.5-1.143 1.118v5.1H1.143A1.131 1.131 0 000 7.334v46.547C0 54.5.51 55 1.143 55h56.714C58.49 55 59 54.5 59 53.882V7.335c0-.611-.51-1.118-1.143-1.118zm-1.142 46.547H2.285V8.454h9.63v3.384c0 .619.51 1.118 1.142 1.118.632 0 1.143-.5 1.143-1.118V8.454h29.298v3.384c0 .619.51 1.118 1.142 1.118.633 0 1.143-.5 1.143-1.118V8.454h10.932v44.31z"/><path d="M45.417 38.197l-3.854-3.772a1.153 1.153 0 00-1.615 0c-.45.433-.45 1.14 0 1.58l3.855 3.773-3.855 3.772c-.45.44-.45 1.148 0 1.58a1.162 1.162 0 001.615 0l3.854-3.772 3.855 3.772a1.162 1.162 0 001.615 0c.45-.432.45-1.148 0-1.58l-3.855-3.772 3.855-3.772c.45-.44.45-1.148 0-1.58a1.153 1.153 0 00-1.615 0l-3.855 3.771zM17.27 18.987h-7.047c-.632 0-1.143.5-1.143 1.118V27c0 .62.51 1.119 1.143 1.119h7.047c.632 0 1.142-.5 1.142-1.119v-6.895a1.13 1.13 0 00-1.142-1.118zm-1.143 6.895h-4.761v-4.659h4.76v4.66zm17.193-6.895h-7.038c-.633 0-1.143.5-1.143 1.118V27c0 .62.51 1.119 1.143 1.119h7.046c.632 0 1.143-.5 1.143-1.119v-6.895a1.14 1.14 0 00-1.15-1.118zm-5.896 6.895v-4.659h4.761v4.66h-4.76zM17.27 34.843h-7.047c-.632 0-1.143.5-1.143 1.118v6.895c0 .62.51 1.119 1.143 1.119h7.047c.632 0 1.142-.5 1.142-1.119v-6.895a1.13 1.13 0 00-1.142-1.118zm-1.143 6.895h-4.761V37.08h4.76v4.66zm17.193-6.895h-7.038c-.633 0-1.143.5-1.143 1.118v6.895c0 .62.51 1.119 1.143 1.119h7.046c.632 0 1.143-.5 1.143-1.119v-6.895a1.14 1.14 0 00-1.15-1.118zm-5.896 6.895V37.08h4.761v4.66h-4.76zM41.6 18.987c-.631 0-1.142.5-1.142 1.118V27c0 .62.51 1.119 1.143 1.119h7.046c.633 0 1.143-.5 1.143-1.119v-6.895a1.13 1.13 0 00-1.143-1.118h-7.046zm5.905 6.895h-4.761v-4.659h4.76v4.66z"/></symbol><symbol viewBox="0 0 64 60" id="hands" xmlns="http://www.w3.org/2000/svg"><path d="M63.288 37.373a3.855 3.855 0 00-4.498-1.374 3.703 3.703 0 00-.66-1.8 3.846 3.846 0 00-5.315-.957l-.63.41a3.786 3.786 0 00-.645-1.702 3.865 3.865 0 00-5.345-.934l-.052.045c-5.068 4.243-11.215 8.553-12.79 8.553-1.162 0-4.715-1.98-7.564-3.57-3.628-2.025-7.062-3.937-8.996-4.094-3.703-.284-14.993 6.252-16.253 7a1.085 1.085 0 00-.39 1.486c.308.515.975.694 1.492.388 4.596-2.689 12.745-6.85 14.994-6.723 1.5.112 5.015 2.084 8.126 3.825 4.108 2.293 6.747 3.735 8.404 3.825.075.007.143.007.217 0h7.497a2.472 2.472 0 012.474 2.465c0 1.36-1.11 2.465-2.474 2.465h-.075c-.075 0-7.384.508-10.39 0-2.826-.47-6.432-3.66-6.47-3.69a1.086 1.086 0 00-1.537.082 1.077 1.077 0 00.083 1.531c.165.15 4.115 3.645 7.564 4.22 1.454.188 2.916.277 4.378.247 3.111 0 6.32-.224 6.522-.239a4.636 4.636 0 004.1-5.117 4.643 4.643 0 00-4.227-4.101h-2.55a97.895 97.895 0 009.177-6.798 1.662 1.662 0 012.301.419 1.654 1.654 0 01-.412 2.3l-.075.06-.082.067-.068.083-.067.09-.045.089-.053.097v.822c.015.037.03.067.053.104l.037.075.038.045c.037.045.075.09.12.134l.067.053.135.09.067.029.165.06h.06c.075.007.158.007.233 0 .09 0 .18-.015.262-.038h.068a.947.947 0 00.247-.12l3.47-2.24a1.67 1.67 0 012.317.403 1.648 1.648 0 01-.404 2.301l-1.117.747a1.145 1.145 0 00-.293 1.591c.36.516 1.072.65 1.597.291l1.102-.747 2.04-1.367a1.66 1.66 0 012.33.247c.578.71.465 1.748-.247 2.323a3.317 3.317 0 01-.202.142c-11.83 8.262-25.242 16.838-27.22 16.86-1.5 0-4.709-1.927-7.572-3.623-3.231-1.92-6.275-3.735-8.427-4.011-4.288-.568-10.915 4.362-11.657 4.96a1.08 1.08 0 00-.203 1.516c.36.47 1.05.56 1.522.202 1.814-1.39 7.152-4.915 10.046-4.534 1.71.224 4.835 2.084 7.601 3.735C28.593 58.095 31.81 60 33.871 60c3.606 0 24.342-14.38 28.487-17.263l.098-.083a3.809 3.809 0 00.832-5.281zM25.107 20.005c4.378.008 7.924-3.526 7.932-7.888.007-4.363-3.539-7.896-7.917-7.904-4.378-.007-7.924 3.526-7.931 7.889v.014c.007 4.356 3.546 7.881 7.916 7.889zm5.743-7.896c0 3.16-2.572 5.722-5.743 5.722a5.747 5.747 0 01-3.066-.889l7.916-7.888c.563.889.893 1.927.893 3.055zm-5.743-5.722c1.23 0 2.369.388 3.299 1.046l-8 7.963a5.667 5.667 0 01-1.049-3.287c.008-3.16 2.579-5.722 5.75-5.722z"/><path d="M36.847 16.472l-8.644 8.613a6.049 6.049 0 000 8.575 6.101 6.101 0 008.606 0l8.644-8.613a6.049 6.049 0 000-8.575 6.101 6.101 0 00-8.606 0zm-1.59 15.664a3.915 3.915 0 01-5.517-.007 3.886 3.886 0 010-5.513l.008.008 3.523-3.511 5.525 5.505-3.538 3.518zm8.66-8.62l-3.532 3.51-5.525-5.505 3.539-3.526a3.915 3.915 0 015.517.008 3.886 3.886 0 010 5.513zM41.57 11.422c3.156 0 5.727-2.562 5.727-5.715C47.297 2.555 44.726 0 41.57 0c-3.164 0-5.735 2.562-5.735 5.715 0 3.152 2.571 5.707 5.735 5.707zm0-9.181a3.476 3.476 0 013.478 3.474 3.483 3.483 0 01-6.964 0A3.483 3.483 0 0141.57 2.24z"/></symbol><symbol viewBox="0 0 65 60" id="house" xmlns="http://www.w3.org/2000/svg"><path d="M64.601 27.093L32.901.27a1.145 1.145 0 00-1.483.007L.391 27.003a1.118 1.118 0 00-.113 1.588 1.145 1.145 0 001.604.113l6.688-5.76v35.932c0 .622.507 1.124 1.135 1.124h44.433c.628 0 1.135-.502 1.135-1.124v-36.72l7.853 6.645a1.14 1.14 0 001.596-.12 1.112 1.112 0 00-.12-1.588zM53.003 57.76H10.84V20.98L32.167 2.607 53.003 20.24v37.52z"/><path d="M18.375 32.164c-1.498 2.555-1.914 5.117-1.226 7.356l2.035 5.513c1.12 2.532 3.64 4.248 7.082 4.825.825.134 1.68.202 2.557.202 2.603 0 5.372-.6 8.035-1.753 3.563-1.543 6.522-3.903 8.337-6.652 1.914-2.899 2.346-5.888 1.249-8.367l-2.104-5.423c-.06-.135-.098-.27-.166-.405-2.497-4.936-10.494-6-17.825-2.374-3.473 1.723-6.31 4.24-7.974 7.078zm25.905 1.82l.053.15c.802 1.82.431 4.053-1.044 6.293-1.574 2.39-4.184 4.457-7.346 5.828-3.163 1.37-6.47 1.865-9.306 1.385-2.663-.442-4.578-1.693-5.357-3.446l-.045-.112c1.074.51 2.3.862 3.67 1.019.559.067 1.134.097 1.724.097 2.837 0 5.894-.756 8.776-2.18 4.419-2.194 7.589-5.595 8.875-9.033zm-9.102-8.846c3.216 0 5.856 1.139 6.96 3.326 1.938 3.835-1.535 9.453-7.746 12.532-3.087 1.528-6.356 2.187-9.223 1.865-2.686-.307-4.66-1.453-5.553-3.228-.9-1.776-.643-4.023.718-6.338 1.453-2.464 3.95-4.666 7.029-6.194 2.663-1.319 5.402-1.963 7.815-1.963z"/><path d="M27.825 40.277l7.936-12.315c.159-.27.416-1.198-.447-1.46-1.074-.203-1.702.868-1.702.868l-8.08 12.54s-.787 1.19.484 1.625c.954.248 1.809-1.258 1.809-1.258z"/></symbol><symbol viewBox="0 0 147 82" id="logo" xmlns="http://www.w3.org/2000/svg"><path fill-rule="evenodd" clip-rule="evenodd" d="M59.83 2.823c.365.607.168 1.392-.417 1.789a25.29 25.29 0 00-6.846 6.89c-.394.588-1.176.787-1.781.423l-1.46-.88c-.606-.365-.804-1.155-.416-1.746a29.643 29.643 0 018.3-8.353c.588-.392 1.376-.194 1.74.412l.88 1.465zm31.378 4.89a25.29 25.29 0 00-3.743-3.101c-.585-.397-.782-1.182-.417-1.789l.88-1.465c.365-.606 1.152-.804 1.74-.412a29.642 29.642 0 018.3 8.353c.388.591.19 1.381-.415 1.746l-1.461.88c-.605.364-1.387.165-1.78-.423a25.361 25.361 0 00-3.104-3.79zm-17.769 35c9.41 0 17.038-7.658 17.038-17.105 0-9.446-7.629-17.103-17.038-17.103-9.41 0-17.037 7.657-17.037 17.103 0 9.447 7.627 17.104 17.037 17.104zm0 4.275a21.13 21.13 0 0010.526-2.79c.638-.364 1.463-.17 1.83.468l1.1 1.912a1.275 1.275 0 001.746.47l1.475-.856c.611-.354.82-1.139.468-1.752l-1.626-2.828a1.34 1.34 0 01.189-1.566 21.349 21.349 0 005.589-14.438c0-11.807-9.535-21.38-21.297-21.38s-21.297 9.573-21.297 21.38c0 5.528 2.09 10.565 5.518 14.36.388.43.473 1.06.185 1.561l-1.619 2.815a1.285 1.285 0 00.468 1.752l1.475.856a1.275 1.275 0 001.746-.47l1.075-1.87c.368-.64 1.198-.832 1.837-.463a21.136 21.136 0 0010.612 2.84zm-10.64-14.225a1.275 1.275 0 001.745.47l19.92-11.545c.61-.355.82-1.14.467-1.753l-.852-1.481a1.275 1.275 0 00-1.745-.47L62.414 29.53a1.285 1.285 0 00-.467 1.753l.852 1.481zM85.175 75.946a.086.086 0 00-.127-.007l-1.578 1.54a.771.771 0 00-.233.552v2.297c0 .428-.35.775-.782.775h-2.341a.779.779 0 01-.783-.774V63.486c0-.428.35-.775.782-.775h2.342c.432 0 .782.347.782.775v9.49c0 .055.067.083.107.045l5.376-5.041a.787.787 0 01.538-.212h2.48c.694 0 1.045.827.559 1.317l-4.213 4.245a.142.142 0 00-.01.188l5.034 6.331c.404.509.039 1.254-.615 1.254h-2.746a.786.786 0 01-.61-.288l-3.962-4.869zM52.988 67.14a.117.117 0 00-.118-.116h-4.709a.779.779 0 01-.782-.775v-1.722c0-.428.35-.775.782-.775h13.71c.432 0 .782.347.782.775v1.722c0 .428-.35.775-.782.775h-4.697a.13.13 0 00-.13.129v13.175c0 .428-.35.775-.782.775H53.77a.779.779 0 01-.782-.774V67.14zm-11.565 3.468c0-.428.35-.775.782-.775h2.342c.432 0 .782.347.782.775v9.72c0 .428-.35.775-.782.775h-2.342a.779.779 0 01-.782-.774v-9.721zm32.695-1.551c-1.119-.992-2.721-1.488-4.808-1.488-1.085 0-2.145.14-3.18.422a9.07 9.07 0 00-2.055.829c-.34.191-.442.616-.264.96l.656 1.263c.226.435.798.555 1.237.331a6.2 6.2 0 01.952-.384 6.754 6.754 0 012.128-.347c1.035 0 1.811.231 2.329.694.495.427.754 1.036.775 1.827a.105.105 0 01-.107.106h-2.997c-1.97 0-3.43.356-4.382 1.066-.935.71-1.402 1.686-1.402 2.925 0 .777.2 1.47.6 2.082.401.612.977 1.09 1.728 1.438.768.347 1.67.52 2.705.52 1.936 0 3.28-.579 4.03-1.737.022-.033.076-.018.076.022v.743c0 .427.35.774.783.774h2.091a.779.779 0 00.782-.774v-6.835c0-1.983-.559-3.462-1.677-4.437zm-3.33 9.196c-.518.297-1.11.446-1.779.446-.684 0-1.227-.14-1.627-.422a1.429 1.429 0 01-.576-1.19c0-1.04.801-1.56 2.404-1.56h2.64c.022 0 .04.016.04.037v1.19a.69.69 0 01-.05.262 2.551 2.551 0 01-1.053 1.237zm37.663-3.442c.014-.191.02-.3.02-.326 0-1.388-.308-2.603-.926-3.644a6.085 6.085 0 00-2.504-2.429c-1.069-.562-2.262-.843-3.581-.843-1.352 0-2.58.298-3.681.893a6.545 6.545 0 00-2.58 2.454c-.617 1.04-.926 2.214-.926 3.52 0 1.321.318 2.503.952 3.544.634 1.041 1.536 1.859 2.704 2.454 1.169.578 2.513.867 4.032.867 2.139 0 3.828-.553 5.067-1.66.296-.266.287-.716.016-1.007l-1.06-1.138c-.298-.32-.799-.327-1.158-.078-.29.201-.594.364-.912.488-.534.198-1.152.297-1.853.297-1.018 0-1.87-.24-2.554-.719a3.123 3.123 0 01-1.259-1.782.14.14 0 01.14-.176h9.284a.777.777 0 00.779-.715zm-9.195-3.573c.601-.496 1.344-.744 2.229-.744.868 0 1.603.256 2.204.769.567.468.926 1.09 1.077 1.868a.118.118 0 01-.119.14h-6.39a.086.086 0 01-.086-.1c.146-.813.508-1.457 1.085-1.933zm-55.854-3.045A2.206 2.206 0 0045.619 66a2.206 2.206 0 00-2.217-2.195A2.206 2.206 0 0041.185 66c0 1.212.992 2.194 2.217 2.194z"/><defs><linearGradient id="fpaint0_linear" x1="48.71" y1=".744" x2="95.096" y2="50.106" gradientUnits="userSpaceOnUse"><stop stop-color="#4F9AF2"/><stop offset="1" stop-color="#1E6BC6"/></linearGradient><linearGradient id="fpaint1_linear" x1="41.185" y1="62.711" x2="50.728" y2="97.255" gradientUnits="userSpaceOnUse"><stop stop-color="#4F9AF2"/><stop offset="1" stop-color="#1E6BC6"/></linearGradient></defs></symbol><symbol viewBox="0 0 30 20" id="mail" xmlns="http://www.w3.org/2000/svg"><path d="M30 .625v18.75H0V.625h30zM2.095 2.5L15 8.96 27.905 2.5H2.095zm26.03 15V4.492L15 11.04 1.875 4.492V17.5h26.25z"/></symbol><symbol viewBox="0 0 147 29" id="main-logo" xmlns="http://www.w3.org/2000/svg"><path fill-rule="evenodd" clip-rule="evenodd" d="M6.948 1.297a.835.835 0 01-.26 1.117 15.799 15.799 0 00-4.278 4.3.83.83 0 01-1.113.263l-.913-.55A.775.775 0 01.125 5.34 18.5 18.5 0 015.311.126a.77.77 0 011.087.258l.55.913zm19.605 3.051a15.798 15.798 0 00-2.339-1.934.834.834 0 01-.26-1.117l.55-.913A.771.771 0 0125.59.126a18.465 18.465 0 015.185 5.213.775.775 0 01-.259 1.089l-.912.549a.83.83 0 01-1.113-.264c-.57-.85-1.22-1.642-1.939-2.365zm-11.102 21.84c5.879 0 10.645-4.778 10.645-10.673 0-5.894-4.766-10.672-10.645-10.672-5.88 0-10.645 4.778-10.645 10.672 0 5.895 4.766 10.673 10.645 10.673zm0 2.668a13.22 13.22 0 006.576-1.74c.4-.229.915-.108 1.145.29l.686 1.194a.797.797 0 001.091.293l.922-.534a.802.802 0 00.292-1.093L25.147 25.5a.835.835 0 01.118-.977 13.312 13.312 0 003.492-9.009c0-7.368-5.957-13.34-13.306-13.34-7.35 0-13.307 5.972-13.307 13.34a13.31 13.31 0 003.448 8.96.835.835 0 01.115.975l-1.011 1.756a.802.802 0 00.292 1.093l.922.534c.382.221.87.09 1.09-.293l.672-1.166c.23-.4.749-.52 1.148-.29a13.22 13.22 0 006.63 1.772zM8.803 19.98a.797.797 0 001.09.293l12.446-7.204a.802.802 0 00.292-1.094l-.532-.924a.797.797 0 00-1.09-.293L8.562 17.962a.802.802 0 00-.293 1.093l.533.925zM110.704 20.625a.132.132 0 00-.195-.011l-2.42 2.364a1.185 1.185 0 00-.357.846v3.525c0 .656-.537 1.188-1.2 1.188h-3.591c-.663 0-1.2-.532-1.2-1.188V1.506c0-.657.537-1.189 1.2-1.189h3.591c.663 0 1.2.532 1.2 1.189v14.561c0 .085.102.128.164.07l8.245-7.736c.223-.209.519-.325.826-.325h3.803c1.064 0 1.602 1.27.856 2.021l-6.461 6.513a.218.218 0 00-.016.289l7.722 9.715c.62.78.059 1.923-.943 1.923h-4.212c-.364 0-.707-.162-.935-.442l-6.077-7.47zM61.34 7.113a.18.18 0 00-.18-.178h-7.223c-.663 0-1.2-.532-1.2-1.189V3.103c0-.656.537-1.189 1.2-1.189h21.026c.663 0 1.2.533 1.2 1.189v2.643c0 .657-.537 1.189-1.2 1.189H67.76a.198.198 0 00-.199.197v20.217c0 .656-.537 1.188-1.2 1.188H62.54c-.663 0-1.2-.532-1.2-1.188V7.113zm-17.737 5.32c0-.656.537-1.188 1.2-1.188h3.59c.663 0 1.2.532 1.2 1.189v14.915c0 .656-.537 1.188-1.2 1.188h-3.59c-.663 0-1.2-.532-1.2-1.188V12.434zm50.143-2.38c-1.715-1.52-4.173-2.281-7.374-2.281-1.664 0-3.29.215-4.877.646-1.173.324-2.224.748-3.151 1.272-.52.294-.678.946-.404 1.473l1.005 1.939c.346.666 1.224.85 1.897.508a9.454 9.454 0 011.46-.59 10.356 10.356 0 013.264-.532c1.587 0 2.778.355 3.571 1.065.76.655 1.156 1.59 1.189 2.802a.161.161 0 01-.163.164h-4.597c-3.021 0-5.262.545-6.721 1.636-1.434 1.09-2.15 2.586-2.15 4.487 0 1.192.307 2.257.921 3.195.615.938 1.498 1.674 2.65 2.206 1.178.533 2.56.799 4.148.799 2.97 0 5.03-.889 6.182-2.665.033-.052.116-.029.116.032v1.14c0 .656.537 1.188 1.2 1.188h3.207c.663 0 1.2-.532 1.2-1.188V16.86c0-3.042-.858-5.312-2.573-6.808zm-5.108 14.11c-.794.457-1.703.685-2.727.685-1.05 0-1.881-.215-2.496-.646-.589-.457-.883-1.065-.883-1.826 0-1.597 1.229-2.396 3.687-2.396h4.05c.032 0 .059.026.059.058v1.826c0 .137-.023.275-.076.402a3.914 3.914 0 01-1.614 1.898zm57.763-5.28c.021-.294.032-.46.032-.5 0-2.13-.474-3.994-1.421-5.591a9.335 9.335 0 00-3.84-3.727c-1.639-.862-3.47-1.293-5.492-1.293-2.074 0-3.956.456-5.646 1.369a10.04 10.04 0 00-3.955 3.765c-.948 1.597-1.421 3.397-1.421 5.4 0 2.029.486 3.842 1.459 5.44.973 1.597 2.356 2.852 4.148 3.765 1.792.887 3.853 1.33 6.183 1.33 3.28 0 5.871-.849 7.771-2.548.455-.406.44-1.098.024-1.544l-1.625-1.746c-.456-.49-1.225-.502-1.777-.12a6.73 6.73 0 01-1.398.748c-.819.305-1.766.457-2.842.457-1.561 0-2.867-.368-3.917-1.103a4.794 4.794 0 01-1.93-2.736.215.215 0 01.213-.269h14.239c.627 0 1.15-.478 1.195-1.098zM132.3 13.4c.922-.76 2.061-1.14 3.418-1.14 1.331 0 2.458.392 3.38 1.178.87.719 1.421 1.674 1.652 2.867a.182.182 0 01-.182.214h-9.801a.132.132 0 01-.131-.153c.224-1.246.778-2.235 1.664-2.966zM46.638 8.73c1.878 0 3.4-1.508 3.4-3.368 0-1.86-1.522-3.367-3.4-3.367s-3.4 1.507-3.4 3.367 1.522 3.368 3.4 3.368z"/><defs><linearGradient id="hpaint0_linear" x1="0" y1="0" x2="28.942" y2="30.839" gradientUnits="userSpaceOnUse"><stop stop-color="#4F9AF2"/><stop offset="1" stop-color="#1E6BC6"/></linearGradient><linearGradient id="hpaint1_linear" x1="43.238" y1=".317" x2="57.888" y2="53.317" gradientUnits="userSpaceOnUse"><stop stop-color="#4F9AF2"/><stop offset="1" stop-color="#1E6BC6"/></linearGradient></defs></symbol><symbol viewBox="0 0 64 74" id="music" xmlns="http://www.w3.org/2000/svg"><path d="M10.13 42.414c0 .627.508 1.133 1.135 1.133h17.258a1.133 1.133 0 100-2.267H11.265c-.627 0-1.134.507-1.134 1.134zm27.676 5.515c0-.627-.506-1.134-1.134-1.134H11.266a1.133 1.133 0 100 2.267h25.406c.628 0 1.135-.506 1.135-1.133zM11.265 59.956H31.74a1.132 1.132 0 100-2.267H11.265a1.133 1.133 0 100 2.267zm0-5.379h14.686a1.133 1.133 0 100-2.267H11.265a1.132 1.132 0 100 2.267z"/><path d="M45.69 42.927c-.605.167-.96.794-.794 1.39a21.57 21.57 0 01.771 5.75c0 11.944-9.737 21.667-21.698 21.667-11.962.007-21.7-9.716-21.7-21.667 0-11.952 9.738-21.667 21.7-21.667.506 0 1.021.015 1.528.053.613.052 1.165-.431 1.21-1.05a1.134 1.134 0 00-1.051-1.21 25.593 25.593 0 00-1.687-.06C10.75 26.133 0 36.876 0 50.067 0 63.265 10.751 74 23.969 74c13.217 0 23.968-10.735 23.968-23.933 0-2.161-.287-4.299-.855-6.354a1.136 1.136 0 00-1.392-.786z"/><path d="M63.833 14.257c-.431-1.85-1.634-3.286-3.579-4.283-.355-.182-.779-.348-1.27-.537-1.325-.521-3.14-1.239-4.32-2.621-2.4-2.818-2.68-5.75-2.68-5.772a1.133 1.133 0 00-2.261.09V23.43c-2.058-2.728-5.327-4.51-9.004-4.51-6.211 0-11.273 5.046-11.273 11.256 0 6.202 5.054 11.256 11.273 11.256C46.94 41.431 52 36.386 52 30.175c0-.12-.015-.242-.015-.37A.831.831 0 0052 29.66V7.035c.28.408.598.83.946 1.239 1.55 1.82 3.76 2.69 5.22 3.264.439.173.81.317 1.075.453 1.339.68 2.126 1.586 2.398 2.765.711 3.052-2.141 6.905-2.172 6.943a1.132 1.132 0 00.227 1.586c.5.378 1.211.28 1.59-.227.12-.18 3.495-4.714 2.549-8.8zm-23.129 24.9c-4.963 0-9.003-4.034-9.003-8.99s4.04-8.99 9.003-8.99c4.971 0 9.011 4.035 9.011 8.99 0 4.964-4.04 8.99-9.01 8.99z"/></symbol><symbol viewBox="0 0 50 65" id="phone" xmlns="http://www.w3.org/2000/svg"><path d="M18.08 60.22c.833 0 1.507-.684 1.507-1.529 0-.845-.674-1.53-1.506-1.53-.833 0-1.507.685-1.507 1.53s.674 1.53 1.506 1.53zm30.315-42.257a1.117 1.117 0 00-1.544-.413 1.152 1.152 0 00-.407 1.568 9.744 9.744 0 011.296 4.848c0 2.462-.859 4.741-2.426 6.416-.821.871-1.959 2.064-3.277 3.41a1.159 1.159 0 00.008 1.621 1.1 1.1 0 00.79.33c.294 0 .58-.115.807-.345a303.904 303.904 0 003.307-3.44c1.966-2.104 3.051-4.94 3.051-8a12.12 12.12 0 00-1.605-5.995z"/><path d="M36.914 15.5V3.442c0-1.896-1.522-3.441-3.39-3.441H3.39C1.522 0 0 1.545 0 3.441V61.56C0 63.455 1.522 65 3.39 65h30.134c1.868 0 3.39-1.545 3.39-3.441v-24.31l-2.26 2.279V52H2.26V9.941h32.394v5.789a7.845 7.845 0 00-4.543 3.242c-1.43-2.118-3.834-3.464-6.463-3.464h-.008a7.72 7.72 0 00-5.537 2.325 7.912 7.912 0 00-2.283 5.613c0 2.026.724 3.915 2.027 5.307 2.772 2.967 11.165 11.28 11.519 11.631.218.214.504.329.79.329.287 0 .573-.107.792-.329.022-.023.745-.742 1.815-1.812l5.417-5.453a359.294 359.294 0 004.226-4.343c1.326-1.407 2.05-3.304 2.05-5.345-.016-4.268-3.368-7.755-7.542-7.93zm-2.26 38.794v7.265c0 .635-.505 1.147-1.13 1.147H3.39c-.625 0-1.13-.513-1.13-1.147v-7.265h32.394zM2.26 7.647V3.441c0-.635.505-1.147 1.13-1.147h30.134c.626 0 1.13.512 1.13 1.147v4.206H2.26zm38.504 19.554c-2.245 2.393-8.415 8.572-10.615 10.767-2.207-2.195-8.422-8.382-10.667-10.783-.904-.97-1.401-2.294-1.401-3.732 0-1.506.572-2.92 1.62-3.984a5.497 5.497 0 013.94-1.651h.007c2.516 0 4.73 1.728 5.386 4.19.136.505.573.841 1.1.85.512 0 .957-.353 1.085-.857.64-2.478 2.848-4.214 5.371-4.214h.008c3.081 0 5.582 2.539 5.59 5.659 0 1.438-.505 2.776-1.424 3.755z"/></symbol><symbol viewBox="0 0 93 20" id="rate" xmlns="http://www.w3.org/2000/svg"><path d="M10 0l2.939 5.955 6.572.955-4.756 4.635 1.123 6.545L10 15l-5.878 3.09 1.123-6.545L.489 6.91l6.572-.955L10 0zm48.571 0l2.94 5.955 6.571.955-4.755 4.635 1.122 6.545L58.571 15l-5.877 3.09 1.122-6.545-4.755-4.635 6.572-.955L58.57 0zM34.286 0l2.939 5.955 6.571.955-4.755 4.635 1.123 6.545L34.286 15l-5.878 3.09 1.122-6.545-4.755-4.635 6.572-.955L34.286 0zm48.571 0l2.94 5.955 6.57.955-4.755 4.635 1.123 6.545L82.857 15l-5.878 3.09 1.123-6.545-4.755-4.635 6.571-.955L82.858 0z"/></symbol></svg>