<svg width="223" height="33" fill="none" xmlns="http://www.w3.org/2000/svg">
    <path d="M16.5 0l4.85 9.826L32.192 11.4l-7.847 7.648 1.853 10.8L16.5 24.75 6.802 29.85l1.852-10.8-7.846-7.648L11.65 9.826 16.5 0zM111.643 0l4.85 9.826 10.843 1.575-7.846 7.648 1.852 10.8-9.699-5.099-9.698 5.099 1.852-10.8-7.846-7.648 10.843-1.575L111.643 0zM64.572 0l4.85 9.826L80.263 11.4l-7.846 7.648 1.852 10.8-9.698-5.099-9.699 5.099 1.853-10.8-7.847-7.648 10.844-1.575L64.572 0zM158.715 0l4.85 9.826 10.843 1.575-7.846 7.648 1.852 10.8-9.699-5.099-9.698 5.099 1.852-10.8-7.846-7.648 10.843-1.575L158.715 0z" fill="#1E6BC6"/>
    <path d="M206.433 0l4.85 9.826 10.843 1.575-7.846 7.648 1.852 10.8-9.699-5.099-9.698 5.099 1.852-10.8-7.846-7.648 10.843-1.575L206.433 0z" fill="url(#paint0_linear)"/>
    <defs>
        <linearGradient id="paint0_linear" x1="189.613" y1="0" x2="227.328" y2="0" gradientUnits="userSpaceOnUse">
            <stop stop-color="#1E6BC6"/>
            <stop offset=".439" stop-color="#1E6BC6"/>
            <stop offset=".451" stop-color="#A6CFFF"/>
        </linearGradient>
    </defs>
</svg>
