<svg width="223" height="33" viewBox="0 0 223 33" fill="none" xmlns="http://www.w3.org/2000/svg">
<path d="M16.5001 0L21.3494 9.82568L32.1927 11.4013L24.3464 19.0495L26.1986 29.849L16.5001 24.7502L6.80159 29.849L8.65385 19.0495L0.807573 11.4013L11.6509 9.82568L16.5001 0Z" fill="#1E6BC6"/>
<path d="M111.643 0L116.493 9.82568L127.336 11.4013L119.49 19.0495L121.342 29.849L111.643 24.7502L101.945 29.849L103.797 19.0495L95.9509 11.4013L106.794 9.82568L111.643 0Z" fill="#1E6BC6"/>
<path d="M64.5719 0L69.4212 9.82568L80.2644 11.4013L72.4182 19.0495L74.2704 29.849L64.5719 24.7502L54.8734 29.849L56.7256 19.0495L48.8794 11.4013L59.7226 9.82568L64.5719 0Z" fill="#1E6BC6"/>
<path d="M158.715 0L163.565 9.82568L174.408 11.4013L166.562 19.0495L168.414 29.849L158.715 24.7502L149.017 29.849L150.869 19.0495L143.023 11.4013L153.866 9.82568L158.715 0Z" fill="#1E6BC6"/>
<path d="M206.433 0L211.283 9.82568L222.126 11.4013L214.28 19.0495L216.132 29.849L206.433 24.7502L196.735 29.849L198.587 19.0495L190.741 11.4013L201.584 9.82568L206.433 0Z" fill="url(#paint0_linear)"/>
<defs>
<linearGradient id="paint0_linear" x1="189.613" y1="0" x2="227.328" y2="0" gradientUnits="userSpaceOnUse">
<stop stop-color="#1E6BC6"/>
<stop offset="0.43902" stop-color="#1E6BC6"/>
<stop offset="0.450979" stop-color="#A6CFFF"/>
</linearGradient>
</defs>
</svg>
